<svg width="42" height="43" viewBox="0 0 42 43" fill="none" xmlns="http://www.w3.org/2000/svg">
<path d="M19.3123 1.50489C19.3528 0.842828 20.3071 0.788271 20.4228 1.4414L21.3927 6.92064C22.6452 13.9958 28.5827 19.291 35.7544 19.729L41.3085 20.0681C41.9707 20.1086 42.0252 21.0629 41.372 21.1786L35.8928 22.1485C28.8177 23.401 23.5224 29.3385 23.0845 36.5102L22.7453 42.0643C22.7048 42.7265 21.7506 42.781 21.6349 42.1278L20.6649 36.6486C19.4124 29.5735 13.475 24.2782 6.30318 23.8403L0.749095 23.5011C0.087031 23.4606 0.0324745 22.5064 0.685608 22.3907L6.16484 21.4207C13.24 20.1682 18.5352 14.2308 18.9732 7.05897L19.3123 1.50489Z" fill="white"/>
</svg>
